# xmcd
#
# Track frame offsets:
#	150
#	21396
#	38380
#	71943
#	92425
#	116085
#	139798
#	163321
#	189741
#	214313
#	238239
#	260635
#	277816
#	293086
#	312117
#	325025
#
# Disc length: 4496 seconds
#
# Revision: 0
# Processed by: cddbd v1.5.2PL0 Copyright (c) Steve Scherf et al.
# Submitted via: EasyCDDAExtractor 15.2.5.1
#
DISCID=f1118e10
DTITLE=Stéphane Pompougnac - Hôtel Costes-Volume 7
DYEAR=2004
DGENRE=Musique Électronique
TTITLE0=	\nLavish (Deadbeats Remix]\nby Mark Rae Feat. Veba\n 	\nLavish (Dead
TTITLE0=beats Remix]\nby Mark Rae Feat. Veba\n 	\nLavish (Deadbeats Remix]\nby
TTITLE0=Mark Rae Feat. Veba\n 	\nLavish (Deadbeats Remix]\nby Mark Rae Feat. 
TTITLE0=Veba\n 	\nLavish (Deadbeats Remix]\nby Mark Rae Feat. Veba\n 	\nLavish
TTITLE0=(Deadbeats Remix]\nby Mark Rae Feat. Veba\n 	\nLavish (Deadbeats Remi
TTITLE0=x]\nby Mark Rae Feat. Veba\n 	\nLavish (Deadbeats Remix]\nby Mark Rae 
TTITLE0=Feat. Veba\n 	\nLavish (Deadbeats Remix]\nby Mark Rae Feat. Veba\n 	\n
TTITLE0=Lavish (Deadbeats Remix]\nby Mark Rae Feat. Veba\n\nLavish (Deadbeats 
TTITLE0=Remix) [feat. Veba] 
TTITLE1=\nThe Brazilian Hipster 
TTITLE2=\nWork That Body 
TTITLE3=\nClive the Runner 
TTITLE4=\nAddicted 
TTITLE5=Hip Hip Chin Chin (Yaziko Club Mix) 
TTITLE6=\nPalumbo 
TTITLE7=S.O.S. (The Sound of Silence) 
TTITLE8=Trail of Dawn (Varano's Hotel of Dawn Remix) 
TTITLE9=So Ma Guisee 
TTITLE10=\nDon't Stop (Dublex Inc. Remix) 
TTITLE11=\nPlease Don't Leave (The Essential Mix) 
TTITLE12=\nTone 10 
TTITLE13=\nJe suis venu te dire que je m'en vais 
TTITLE14=\nSunday Driver 
TTITLE15=Heaven's Gonna Burn Your Eyes (feat. Emiliana Torrini) 
EXTD=
EXTT0=
EXTT1=
EXTT2=
EXTT3=
EXTT4=
EXTT5=
EXTT6=
EXTT7=
EXTT8=
EXTT9=
EXTT10=
EXTT11=
EXTT12=
EXTT13=
EXTT14=
EXTT15=
PLAYORDER=
